<svg xmlns="http://www.w3.org/2000/svg" width="300" height="72.504"><title>h+h lab logotype</title><path d="M0 .024h14.82V27.93h.708q2.751-2.706 6.39-4.08 3.636-1.422 7.851-1.422 7.899 0 12.645 4.926 4.746 4.878 4.746 15.129v29.235H32.34v-28.35q0-4.569-1.95-6.477-1.908-1.95-5.634-1.95-2.838 0-5.502 1.11-2.661 1.062-4.437 3.102v32.565H0zm71.829 57.96V43.566H58.074V32.385h13.755V17.967h11.67v14.418h13.797v11.181h-13.8v14.418zM108.651.024h14.82V27.93h.708q2.751-2.706 6.39-4.08 3.636-1.422 7.851-1.422 7.899 0 12.645 4.926 4.746 4.878 4.746 15.129v29.235h-14.82v-28.35q0-4.569-1.95-6.477-1.908-1.95-5.634-1.95-2.838 0-5.502 1.11-2.661 1.062-4.437 3.102v32.565h-14.817zm83.097 71.67V0h5.412v71.694zm35.271-48.75q6.168 0 10.161 1.596 4.035 1.554 6.12 5.235 2.085 3.639 2.085 9.894V71.7h-4.614l-.399-5.634h-.444q-2.526 2.97-6.609 4.704-4.038 1.686-8.607 1.686-4.659 0-8.031-1.554-3.372-1.554-5.19-4.437-1.776-2.928-1.776-6.921 0-6.165 4.17-9.54 4.17-3.414 13.356-4.389l12.822-1.464v-4.617q0-4.659-1.509-7.278-1.509-2.619-4.482-3.636-2.928-1.065-7.584-1.065-3.195 0-6.789.576-3.594.531-7.011 1.731v-4.701q3.018-1.065 6.834-1.641 3.858-.576 7.5-.576zm-1.287 45.075q4.038 0 7.719-1.596 3.729-1.644 6.612-4.926V48.189l-12.555 1.419q-6.48.753-9.36 3.06-2.841 2.262-2.841 6.432 0 4.305 2.616 6.612 2.619 2.307 7.809 2.307zm49.557 4.485q-8.118 0-15.306-2.175V.009h5.412V28.98h.354q2.619-2.838 6.39-4.437 3.771-1.596 8.34-1.596 5.679 0 10.071 2.439 4.392 2.439 6.921 7.764Q300 38.43 300 46.77q0 12.87-6.255 19.299-6.21 6.435-18.456 6.435zm.354-4.569q9.408 0 14.064-4.968 4.704-5.016 4.704-15.66 0-10.518-4.08-15.042-4.038-4.527-11.136-4.527-4.083 0-7.677 1.554-3.594 1.554-6.12 4.746v32.52q4.788 1.377 10.245 1.377z" aria-label="h+h lab" stroke-width=".739"/></svg>